<svg xmlns="http://www.w3.org/2000/svg" width="48" height="48">
    <path fill="gray" fill-rule="evenodd" d="M46.125 3.987v40.026A1.993 1.993 0 0 1 48 46a2 2 0 0 1-2 2H2a2 2 0 1 1 0-4h.5V4H2a2 2 0 1 1 0-4h44a2 2 0 0 1 2 2c0 1.062-.83 1.922-1.875 1.987zM24 26.25a1.874 1.874 0 1 0-.001 3.749A1.874 1.874 0 0 0 24 26.25zm19.906-5.344H24.938v3.599c1.632.416 2.843 1.872 2.843 3.62 0 2.071-1.693 3.75-3.781 3.75s-3.781-1.679-3.781-3.75c0-1.748 1.211-3.204 2.843-3.62v-3.599H4.719v23.875h39.187V20.906z"/>
</svg>
