<svg xmlns="http://www.w3.org/2000/svg" width="52.5" height="52.5">
    <path fill="gray" fill-rule="evenodd" d="M26.403 19.906a5.402 5.402 0 0 1 5.397 5.407 5.402 5.402 0 0 1-5.397 5.406 5.402 5.402 0 0 1-5.397-5.406 5.402 5.402 0 0 1 5.397-5.407z"/>
    <path fill="none" stroke="gray" stroke-width="3" d="M25.904 4.5c4.686 0 8.485 9.402 8.485 21s-3.799 21-8.485 21-8.485-9.402-8.485-21 3.799-21 8.485-21z"/>
    <path fill="none" stroke="gray" stroke-width="3" d="M45.439 15.793c2.101 4.138-5.165 12.062-16.23 17.7C18.144 39.13 7.471 40.345 5.37 36.207c-2.101-4.138 5.166-12.062 16.231-17.7 11.064-5.637 21.737-6.852 23.838-2.714z"/>
    <path fill="none" stroke="gray" stroke-width="3" d="M5.387 15.532c-2.099 4.122 5.161 12.016 16.217 17.631 11.055 5.616 21.719 6.826 23.818 2.704s-5.161-12.015-16.216-17.631C18.15 12.621 7.486 11.41 5.387 15.532z"/>
</svg>
