<svg xmlns="http://www.w3.org/2000/svg" width="49" height="48">
    <path fill="gray" fill-rule="evenodd" d="M43.274 15.978c-1.437 0-6.916 1.155-11.473 2.486a9.275 9.275 0 0 0-5.168-3.46c4.875-7.064 8.82-7.707 8.82-9.911 0-2.8-4.27-5.089-9.546-5.089-5.288 0-9.544 2.238-9.532 5.076 0 1.44 1.153 6.921 2.479 11.484a9.298 9.298 0 0 0-3.444 5.15c-7.069-4.89-7.709-8.85-9.912-8.85-2.794 0-5.079 4.277-5.079 9.563 0 5.285 2.285 9.615 5.067 9.551 1.435 0 6.897-1.152 11.448-2.48a9.276 9.276 0 0 0 5.2 3.494c-4.878 7.074-8.827 7.717-8.827 9.922 0 2.8 4.27 5.089 9.545 5.089 5.289 0 9.545-2.289 9.533-5.075 0-1.442-1.155-6.931-2.483-11.496a9.295 9.295 0 0 0 3.457-5.185c7.06 4.887 7.701 8.844 9.903 8.844 2.794 0 5.093-4.265 5.093-9.55 0-5.285-2.286-9.563-5.081-9.563M24.379 29.935c-3.268 0-5.926-2.663-5.926-5.938 0-3.274 2.658-5.938 5.926-5.938 3.269 0 5.928 2.664 5.928 5.938 0 3.275-2.659 5.938-5.928 5.938"/>
</svg>
