<svg xmlns="http://www.w3.org/2000/svg" width="48" height="25">
    <path fill="gray" fill-rule="evenodd" d="M33.836 24.929c3.795-2.879 6.244-7.378 6.244-12.426S37.631 2.956 33.836.077C40.26 2.354 44.624 6.796 48 12.503c-3.376 5.707-7.74 10.149-14.164 12.426zM23.999 25c-7.048 0-12.783-5.606-12.783-12.497S16.951.006 23.999.006c7.049 0 12.784 5.606 12.784 12.497S31.048 25 23.999 25zm0-16.257c-2.124 0-3.846 1.683-3.846 3.76s1.722 3.76 3.846 3.76c2.125 0 3.847-1.683 3.847-3.76s-1.722-3.76-3.847-3.76zm-9.835 16.186C7.738 22.652 3.376 18.21 0 12.503 3.376 6.796 7.738 2.354 14.164.077 10.367 2.956 7.92 7.455 7.92 12.503s2.447 9.547 6.244 12.426z"/>
</svg>
