<svg xmlns="http://www.w3.org/2000/svg" width="132" height="42.72" viewBox="0 0 132 42.72">
  <metadata><?xpacket begin="﻿" id="W5M0MpCehiHzreSzNTczkc9d"?>
<x:xmpmeta xmlns:x="adobe:ns:meta/" x:xmptk="Adobe XMP Core 5.6-c138 79.159824, 2016/09/14-01:09:01        ">
   <rdf:RDF xmlns:rdf="http://www.w3.org/1999/02/22-rdf-syntax-ns#">
      <rdf:Description rdf:about=""/>
   </rdf:RDF>
</x:xmpmeta>
                                                                                                    
                                                                                                    
                                                                                                    
                                                                                                    
                                                                                                    
                                                                                                    
                                                                                                    
                                                                                                    
                                                                                                    
                                                                                                    
                                                                                                    
                                                                                                    
                                                                                                    
                                                                                                    
                                                                                                    
                                                                                                    
                                                                                                    
                                                                                                    
                                                                                                    
                                                                                                    
                           
<?xpacket end="w"?></metadata>
<defs>
    <style>
      .cls-1 {
        fill: #2a4464;
        fill-rule: evenodd;
      }
    </style>
  </defs>
  <path id="IWA_logo.png" class="cls-1" d="M300.018,1621.2a0.869,0.869,0,0,1-1.174-.4l-4.379-8.83H274.934l-4.441,8.84a0.877,0.877,0,0,1-1.177.39,1.117,1.117,0,0,1-.386-1.37l15.061-30.14a1.379,1.379,0,0,1,.781-0.85h0a1.309,1.309,0,0,1,.781.8l14.855,30.38A0.885,0.885,0,0,1,300.018,1621.2Zm-15.251-28.79-8.836,17.58h17.55Zm-23.786,28.51a1.628,1.628,0,0,1-.781.97h0a1.4,1.4,0,0,1-.781-0.85l-6.874-14.23-6.965,14.11a1.623,1.623,0,0,1-.782.97h0a1.638,1.638,0,0,1-.782-0.98L229.2,1590.47a0.878,0.878,0,0,1,1.568-.79l14.035,28.39,6.766-13.47-7.006-14.13a0.877,0.877,0,0,1,1.567-.79l6.424,12.96,6.51-12.96a0.868,0.868,0,0,1,1.176-.39,0.881,0.881,0,0,1,.387,1.18l-7.1,14.14,6.678,13.46,14.274-28.39a0.869,0.869,0,0,1,1.177-.39,1.2,1.2,0,0,1,.386,1.43Zm-38.143.15a0.975,0.975,0,0,1-.985-0.88v-29.96a0.992,0.992,0,0,1,1.971,0v29.96A0.975,0.975,0,0,1,222.838,1621.07Zm-26.017-5.53-7.67-7.72,10.812-3.93a2.686,2.686,0,1,0-.635-1.74c0,0.06.006,0.12,0.009,0.18l-10.222,3.71,3.763-10.19a0.314,0.314,0,0,0,.1.01,2.681,2.681,0,1,0-1.666-.59L187.344,1606l-7.583-7.63,5.27-13.99a21.347,21.347,0,0,1,25.288,26Zm-10.706-8.39-11.267,4.27,4.261-11.32Zm8.991,9.05-11.258,4.3,4.162-11.44Zm-22.518-3.06a0.128,0.128,0,0,1-.007.05,0.423,0.423,0,0,0,.539.28,1.974,1.974,0,0,0,.581-0.18h0l12.586-4.58-4.644,12.94a0.869,0.869,0,0,0-.051.29,0.847,0.847,0,0,0,.249.6,0.828,0.828,0,0,0,.589.24,0.76,0.76,0,0,0,.3-0.05l26.977-10.31a21.253,21.253,0,1,1-26.683-27.48l-10.41,27.62A0.847,0.847,0,0,0,172.588,1613.14Z" transform="translate(-168.5 -1583.84)"/>
</svg>
