<svg xmlns="http://www.w3.org/2000/svg" width="16.97" height="16.94" viewBox="0 0 16.97 16.94">
  <metadata><?xpacket begin="﻿" id="W5M0MpCehiHzreSzNTczkc9d"?>
<x:xmpmeta xmlns:x="adobe:ns:meta/" x:xmptk="Adobe XMP Core 5.6-c138 79.159824, 2016/09/14-01:09:01        ">
   <rdf:RDF xmlns:rdf="http://www.w3.org/1999/02/22-rdf-syntax-ns#">
      <rdf:Description rdf:about=""/>
   </rdf:RDF>
</x:xmpmeta>
                                                                                                    
                                                                                                    
                                                                                                    
                                                                                                    
                                                                                                    
                                                                                                    
                                                                                                    
                                                                                                    
                                                                                                    
                                                                                                    
                                                                                                    
                                                                                                    
                                                                                                    
                                                                                                    
                                                                                                    
                                                                                                    
                                                                                                    
                                                                                                    
                                                                                                    
                                                                                                    
                           
<?xpacket end="w"?></metadata>
<defs>
    <style>
      .cls-1 {
        fill: #3f5774;
        fill-rule: evenodd;
      }
    </style>
  </defs>
  <path id="language" class="cls-1" d="M1138.8,1599.55a8.48,8.48,0,1,1-8.48,8.48A8.484,8.484,0,0,1,1138.8,1599.55Zm-4.28,2.8a6.3,6.3,0,0,1,3.32-1.58l0.35,0.53,0.52,0.17a2.2,2.2,0,0,1,0,1.23,2.651,2.651,0,0,0,.18,1.4,5.278,5.278,0,0,0,2.45-2.8,7.735,7.735,0,0,1,1.92,1.05,12.032,12.032,0,0,0-1.22,1.75,1.045,1.045,0,0,0,.69.35l-1.57,1.57,0.18,0.52-0.53.18a15.882,15.882,0,0,1-1.05,2.45,0.8,0.8,0,0,0,.53,1.22c0.61,0.09,1.57.18,1.75,0.53s0.87,2.97.87,2.97-3.41,2.01-5.95.87a1.785,1.785,0,0,1,1.05-1.22,1.635,1.635,0,0,0,.7-1.92c-0.08-.15-1.6-0.21-1.75-0.7a1.61,1.61,0,0,0-.35-0.7s0.3-.12-0.35-0.18-2.09,0-2.09,0a5.2,5.2,0,0,1-.53-0.87h-0.7a0.781,0.781,0,0,1,.88-1.05,0.7,0.7,0,0,1,.7,1.05s0.23,0.38.35,0a9.325,9.325,0,0,1,0-1.4,1.95,1.95,0,0,1,.87-0.88c0.35-.08,1.89-0.35,1.92-1.04a1.236,1.236,0,0,0-1.22-1.4c-0.88-.03-0.58.64-1.4,0.87s-0.61-.93-0.52-1.05a2.642,2.642,0,0,1,1.39-1.22c0.7-.09.53,0.52,0.53,0.52h0.87S1137.04,1601.56,1134.52,1602.35Zm-2.8,6.47a7.349,7.349,0,0,0,1.4,1.05,1.6,1.6,0,0,1,1.05.52c0.17,0.32.03,1.2,0.17,1.58a4.427,4.427,0,0,1,.7,2.09A6.839,6.839,0,0,1,1131.72,1608.82Z" transform="translate(-1130.31 -1599.56)"/>
</svg>
