<svg 
 xmlns="http://www.w3.org/2000/svg"
 xmlns:xlink="http://www.w3.org/1999/xlink"
 width="32px" height="48px">
<path fill-rule="evenodd"  fill="rgb(128, 128, 128)"
 d="M15.998,0.535 C24.820,0.535 31.998,7.882 31.998,16.913 C31.998,20.612 30.815,24.106 28.574,27.017 C26.902,29.187 25.371,31.481 24.023,33.835 L23.529,34.696 L8.465,34.696 L7.971,33.835 C6.639,31.509 5.066,29.153 3.422,27.019 C1.180,24.109 -0.005,20.614 -0.005,16.913 C-0.005,7.882 7.174,0.535 15.998,0.535 ZM12.880,44.755 C10.860,44.608 9.260,42.902 9.260,40.798 L22.733,40.798 C22.733,42.902 21.134,44.608 19.114,44.755 L19.114,45.648 C19.114,46.657 18.314,47.475 17.330,47.475 L14.665,47.475 C13.678,47.475 12.880,46.657 12.880,45.648 L12.880,44.755 ZM21.944,36.129 C22.829,36.129 23.547,36.864 23.547,37.770 C23.547,38.676 22.829,39.411 21.944,39.411 L10.051,39.411 C9.166,39.411 8.448,38.676 8.448,37.770 C8.448,36.864 9.166,36.129 10.051,36.129 L21.944,36.129 Z"/>
</svg>