<svg xmlns="http://www.w3.org/2000/svg" width="49" height="35">
    <path fill="gray" fill-rule="evenodd" d="M48.105 11.638c.011.065.034.128.034.195 0 .082-.008.165-.024.247l-.693 3.369a1.23 1.23 0 0 1-1.206.987h-1.477c.353.394.66.817.922 1.259.088.149.142.312.22.465.154.302.317.601.432.918.069.192.101.393.156.589.082.291.179.578.23.875.037.214.034.431.055.646.027.282.072.563.072.847v.023c-.012 2.236-.858 4.474-2.627 6.1v4.625a1.852 1.852 0 0 1-1.847 1.852h-4.313a1.851 1.851 0 0 1-1.847-1.852v-1.897H12.021v1.897a1.85 1.85 0 0 1-1.847 1.852H5.861a1.851 1.851 0 0 1-1.847-1.852v-4.716l-.054-.043a7.845 7.845 0 0 1-1.104-1.267c-.107-.154-.175-.332-.271-.493-.19-.318-.391-.631-.535-.975-.088-.208-.129-.438-.199-.654-.105-.323-.228-.637-.295-.976-.047-.242-.044-.501-.071-.75-.036-.329-.095-.651-.095-.991v-.029c.009-1.951.657-3.903 1.994-5.451H1.999a1.23 1.23 0 0 1-1.205-.984l-.693-3.372a1.17 1.17 0 0 1-.026-.249c0-.067.023-.131.034-.197.007-.049.01-.096.024-.144.046-.159.112-.31.218-.44a1.23 1.23 0 0 1 .955-.455h4.678c1.16-3.051 2.657-6.05 4.368-7.182C13.309 1.463 18.708.486 24.108.486s10.799.977 13.756 2.929c1.709 1.13 3.212 4.124 4.367 7.182h4.679c.367 0 .717.167.953.455.105.132.172.284.217.441.014.048.017.095.025.145zM6.859 22.356a3.64 3.64 0 0 0 3.631 3.645 3.64 3.64 0 0 0 3.633-3.645 3.639 3.639 0 0 0-3.633-3.646 3.639 3.639 0 0 0-3.631 3.646zM35.832 6.51c-4.711-3.114-18.74-3.114-23.453 0-.915.604-2.092 3.042-3.17 6.025h29.795c-1.079-2.986-2.257-5.423-3.172-6.025zm1.939 12.2a3.638 3.638 0 0 0-3.63 3.646 3.639 3.639 0 0 0 3.63 3.645 3.639 3.639 0 0 0 3.631-3.645 3.637 3.637 0 0 0-3.631-3.646z"/>
</svg>
